<?xml version="1.0" encoding="utf-8"?>
<!-- Generator: Adobe Illustrator 28.0.0, SVG Export Plug-In . SVG Version: 6.00 Build 0)  -->
<svg version="1.1" id="_x2014_ÎÓÈ_x5F_1" xmlns="http://www.w3.org/2000/svg" xmlns:xlink="http://www.w3.org/1999/xlink"
	 x="0px" y="0px" viewBox="0 0 1920 4998.8" style="enable-background:new 0 0 1920 4998.8;" xml:space="preserve">
<style type="text/css">
	.st0{fill:#301701;}
	.st1{fill:#630658;}
	.st2{fill:#261101;}
	.st3{fill:#9E3E91;}
</style>
<path class="st1" d="M1157.1,59.5c-0.3,0.2-0.1,0.9,0,1.6c0-0.2,0.1-0.5,0.1-0.7C1157.2,60.3,1157.2,59.9,1157.1,59.5L1157.1,59.5z"
	/>
<path class="st1" d="M1145.1,61.8c0,0.1,0.1,0.1,0.1,0.2C1145.2,61.9,1145.2,61.8,1145.1,61.8z"/>
<path class="st2" d="M731.5,4586.9c-0.3,0.2-0.1,0.9,0,1.6c0-0.2,0.1-0.5,0.1-0.7C731.6,4587.7,731.6,4587.3,731.5,4586.9
	C731.6,4586.9,731.5,4586.9,731.5,4586.9z"/>
<path class="st2" d="M719.5,4589.2c0,0.1,0.1,0.1,0.1,0.2C719.6,4589.3,719.6,4589.2,719.5,4589.2z"/>
<path class="st3" d="M37.8,4873.6c8.4,3.6,23.9,25.6,43.1,20.6c19.1-2.2,42-7.2,65-11.5c23.1,1.5,46.4,25.9,66.6,21.2
	c20.2-10.6,37.3-10.7,47.8-21.2c14.1-12.9,31.2,8.6,48.5,3.5c17.3-5.1,34.7-6.8,49.2-6c14.5-11,26.1,5.5,31.7,8.5
	c5.6,5.7,19.2,1.7,36.2,5.1c17,2.9,37.5-1.2,57.2-8c19.6,5.1,38.4-15.2,51.9-14.8c10.1-7,17.6,21.1,23.5,7.9
	c5.9,5.2,10.4,2.5,14.6-4.9c4.2,3.7,8.1-14.3,12.9-7.1c4.8,4.6,10.6-0.2,18.4-9.8c6.3-6.3,18.4-10.9,34.1-11.7
	c15.6-1,34.7,13.3,54.9-4c10.1-1.4,20.5-1.6,30.8-3c10.3-2.8,20.7,2.5,30.7-10.8c10,3.3,19.7,6.7,28.8,12
	c9.1-12.2,17.5,2.7,25.1-3.1c10.7-10,19.5-16.1,25.7-13.6c6.3,2.5,13.1,3.5,19.5,1.5c7-2.2,15.5-2.4,24.9,4.4
	c4.8,3.5,10.4,5.8,16.3,6.4c7.1,0.7,14.6,3.2,22,5.8c10.7,3.7,21.5-12.2,31.9-12.5c10.4,11.6,20.2,9.6,29,6.6
	c8.8-5,16.5,11.6,22.5,0.9c12,4.9,24,17.7,36.1,11.3c12.1,15.5,26.6-1.5,39,9c12.4,2.2,22.5,17.2,35.3,16.3
	c12.7,2.7,31-10.2,50.2-11.3c9.6-2.1,19.5-14.1,29.1-15.9c9.6-8.5,18.8,4.7,27.2-4c8.4-7.4,15.9-3.7,21.9-0.7
	c6.1-8.6,10.7,6.9,13.3,4.1c3.9,9.7,17.2-11.3,34.8-2.5c17.6,1.5,39.6,18.9,61.1,24.9c21.5,19.7,42.5,11,58.2,22.3
	c15.6,16.2,25.9,17.2,25.9,9.7c0-3.6,10.8-1.3,27.6-3.3c12.6,7.7,28.6-4,45.8-5.1c17.3-10.5,35.9-1.7,53.7-5.2
	c17.9-2,35-7.4,49.3-3.4c14.4-5.1,25.9,17,32.7,0.2c7.2,9.7,22.6,4.1,42.7,11.1c20.1,20.2,44.9,19,70.7,21.3
	c25.8,7.8,52.7-44.3,77.1-37.7c48.8,13.1,87.5,20.6,87.5,10.3c0-25.9,0-4887.4,0-4887.4H0.2v4865.3c0,0,14.9,13.7,14.9,11.8
	C15,4876.7,37.8,4885.4,37.8,4873.6z"/>
</svg>
