<?xml version="1.0" encoding="utf-8"?>
<!-- Generator: Adobe Illustrator 28.0.0, SVG Export Plug-In . SVG Version: 6.00 Build 0)  -->
<svg version="1.1" id="_x2014_ÎÓÈ_x5F_1" xmlns="http://www.w3.org/2000/svg" xmlns:xlink="http://www.w3.org/1999/xlink"
	 x="0px" y="0px" viewBox="0 0 1920 281.6" style="enable-background:new 0 0 1920 281.6;" xml:space="preserve">
<style type="text/css">
	.st0{fill:url(#SVGID_1_);}
	.st1{fill:#301701;}
	.st2{fill:#261101;}
</style>
<radialGradient id="SVGID_1_" cx="2297.9573" cy="591.8105" r="2355.7869" gradientUnits="userSpaceOnUse">
	<stop  offset="3.133461e-03" style="stop-color:#811646"/>
	<stop  offset="1" style="stop-color:#991B48"/>
</radialGradient>
<path class="st0" d="M1920.7,281.6H0.7V64.4l55.4-3.9c0,0,120,52.9,165,37.3c33.7-11.7,67.3,23,123.4,16.2
	c18.7-2.3,39.9-9.1,64.4-23.9c20.6-1.2,38.7-16.6,54.8-24.3c16.1-5.7,30,24.8,42.8,13.2c12.8-6.8,24.6-1.5,35.3-7.9
	c10.7,0.1,20.6-24.3,30.3-16c6.4,2.7,12.8-1.8,19.2,1.5c11.4,6.3,17,10.8,23.7,7.3c9,3.2,13.4,2.7,21.4,6.7c8-0.1,15.5,0.2,22.7,5
	c14.4,10.4,27.3,3.8,39.6,10.6c12.4-0.5,24.1,0.2,36.1,11.2c6,4.1,12.6,1.9,19.7-0.6c1.4-0.3,12.9,0.7,30.5,2.6
	c8.9,0.8,19.3,1.9,27.2,7.7c6.7,0,12.6,1.5,17.5,4.8c7.1,4.8,15.6,5.2,24.1,3.7c7.5-1.3,14.4-0.4,21,3.8c11.2-7.1,21.5-5.3,32.6,2.1
	c2.7,0.1,5.5,0.6,8.3,1.6c13.2,4.5,27.3,5.5,40.7,1.7c4.2-1.2,16,5.8,20.3,6.4c11.1-3.8,14.6-9.1,25.1-5.7c14.5-1.6,26-0.2,27.3,0
	c6.7,6.6,13.3-0.2,19.9,8c8.8,3.4,18.5,5.4,28.7,6.4c10.2,1,20.9,0.9,31.6,0.1c21.5-4.9,43.1-17.4,61.7-4.5c18.5-0.7,34-2.4,43-9.8
	c3.4,0.4,8.5,6.1,14.9-5.9c6.4-2.2,14.1-13.1,22.8-9.2c8.7-8.4,18.3,2.7,28.5-9.7c10.2-4.2,21-8.8,31.9-13.5
	c21.9-17.8,44.5-26.9,64.7-29.4c20.3-15.4,38.2,8.6,50.7,2.5c16.7-7.9,32.2-16.6,47.3-15.8c15.1,5,29.6,10.7,44.5,1.1
	c7.5,6.2,15-3.4,22.6-1.1c7.7-1,15.5-3,23.5-6.4c12.1-5.8,29.3-14.9,48.6-1.7c19.3,12.1,40.5,9.5,60.5,16.5c20-2,38.8,6.2,53.1,21.3
	c14.3,14.3,24.3,6.3,26.5,12.7c3,2.3,22.5,4.3,47.2,13.2c24.7,6.3,54.5,13.5,78.2,19.1c23.7,5.6,41.2,9.7,41.2,9.7V281.6z"/>
</svg>
