<?xml version="1.0" encoding="utf-8"?>
<!-- Generator: Adobe Illustrator 24.1.1, SVG Export Plug-In . SVG Version: 6.00 Build 0)  -->
<svg version="1.1" xmlns="http://www.w3.org/2000/svg" xmlns:xlink="http://www.w3.org/1999/xlink" x="0px" y="0px"
	 viewBox="0 0 500 500" style="enable-background:new 0 0 500 500;" xml:space="preserve">
<style type="text/css">
	.st0{display:none;}
	.st1{fill:#FFFFFF;}
	.st2{display:inline;fill:none;stroke:#ED1F24;stroke-width:2;stroke-miterlimit:10;}
</style>
<g id="Layer_1">
</g>
<g id="Layer_4" class="st0">
</g>
<g id="Layer_2">
	<g>
		<path class="st1" d="M247.6,35.6L31.5,251.7l216.1,216.1l216.1-216.1L247.6,35.6z M269,324.5l-14.9,21.3l-13.2,0l-14.8-21.3
			l-10.1,14.3h-75.9l49.4-82.1l-7.7-10.9l-0.5-0.7l52.9-68l-21.2,0.2l-23.5-32.9l116,0L258.7,210h27.9l27.1,35.1l-8.1,11.6l0.3,0.6
			l49.2,81.5H279L269,324.5z"/>
		<polygon class="st1" points="247.5,264.4 261.2,245.1 234.2,245.1 		"/>
	</g>
</g>
<g id="Layer_3" class="st0">
	<polygon id="triangle-1" class="st2" points="72.7,408.9 249.6,115.6 427.3,408.9 	"/>
	<polygon id="triangle-2" class="st2" points="250,113.3 21.2,408.9 478.8,408.9 	"/>
	<polygon id="triangle-3" class="st2" points="140.7,254.3 249.8,407 359,254.3 	"/>
	<polygon id="triangle-4" class="st2" points="214.6,385.3 249.3,435.9 285.2,385.3 	"/>
	<polygon id="triangle-5" class="st2" points="154.2,88.2 249.8,222.1 345.5,88.2 	"/>
</g>
</svg>
