<?xml version="1.0" encoding="utf-8"?>
<!-- Generator: Adobe Illustrator 28.0.0, SVG Export Plug-In . SVG Version: 6.00 Build 0)  -->
<svg version="1.1" id="Layer_1" xmlns="http://www.w3.org/2000/svg" xmlns:xlink="http://www.w3.org/1999/xlink" x="0px" y="0px"
	 viewBox="0 0 500 300" style="enable-background:new 0 0 500 300;" xml:space="preserve">
<style type="text/css">
	.st0{fill:#443C3C;}
</style>
<g>
	<path class="st0" d="M298.8,15.3c-0.5-0.6-1.3-0.7-1.9-0.8c-2.7-0.7-5.5-1-8.3-1.4c-4.2-0.5-8.3,0-12.5,0.1
		c-2.8,0.1-5.6,0.3-8.4,0.5c-4.7,0.3-9.3,0.5-14,0.8c-4.4,0.3-8.7,0.7-13.1,1.2c-4.2,0.4-8.5,1-12.7,1.5c-4.2,0.6-8.5,1.2-12.7,1.8
		c-5.2,0.8-10.5,1.7-15.7,2.6c-5.4,0.9-10.9,1.9-16.3,2.9c-4.9,0.9-9.9,1.7-14.8,2.6c-10.3,1.9-20.4,4.1-30.4,7.2
		c-1.4,0.4-2.8,0.9-4.2,1.4c-0.9,0.3-1.5,0.1-2.2-0.5c-2.2-1.9-3.7-4.3-4.5-7.1c0-0.2,0-0.3,0-0.6c1.3-0.7,2.6-1.3,4-1.7
		c7.5-2.3,14.9-4.6,22.6-6c4.8-0.9,9.5-1.7,14.3-2.3c4.2-0.5,8.4-1.1,12.6-1.6c3.4-0.4,6.8-0.8,10.2-1.2c3.7-0.4,7.5-0.8,11.2-1.2
		c2.9-0.3,5.9-0.6,8.9-0.8c4-0.3,8-0.6,11.9-0.9c2.8-0.2,5.6-0.4,8.4-0.4c5.3-0.2,10.6-0.3,15.9-0.4c10.8-0.2,21.5-0.3,32.3-0.4
		c3.5,0,7,0,10.4,0.4c3,0.3,5.9,0.9,8.6,2.1c0.7,0.3,1.4,0.7,2.1,1.1c0.9,0.7,1,1.5,0.3,2.3c-0.6,0.6-1.2,1.2-1.9,1.7
		c-1.7,1.2-3.6,2-5.5,2.7c-3.1,1.1-6.3,2.1-9.4,3.1c-12.4,3.8-24.6,8.2-36.7,13c-11.5,4.6-23,9.5-34.2,14.8
		c-9.2,4.3-18.5,8.6-27.6,13.2c-12.4,6.3-24.7,13-36.7,20.2c-2.4,1.4-4.7,3.1-6.8,4.8c-4.8,3.9-10,7.4-15.1,10.9
		c-7.3,5-14.7,10-21.9,15.2c-8.1,5.9-16,12.1-24,18.2c-0.4,0.3-0.7,0.7-1,1.2c0.4-0.1,0.7-0.1,1.1-0.2c3.6-1.2,7.1-2.4,10.7-3.5
		c10.3-3.1,20.7-6,31.2-8.5c9-2.2,17.9-4.3,26.9-6.4c5.8-1.3,11.7-2.4,17.6-3.6c9.4-1.9,18.8-3.5,28.3-5c6.3-1,12.6-2,18.9-2.9
		c4.5-0.7,9-1.3,13.5-1.9c6.3-0.8,12.7-1.5,19-2.2c6.2-0.7,12.5-1.3,18.7-1.9c4.9-0.5,9.8-0.9,14.7-1.2c9-0.5,18.1-1,27.2-1.4
		c5.9-0.3,11.7-0.6,17.6-0.8c3.3-0.1,6.6-0.1,9.9-0.2c2.7,0,5.4-0.1,8-0.1c5.6,0,11.3,0,16.9,0.2c5.5,0.2,10.9,0.5,16.4,0.9
		c4.7,0.3,9.4,0.7,14.1,1.2c7.1,0.7,14.2,1.4,21.2,2.7c7.8,1.4,15.5,3.1,23,5.8c2.9,1.1,5.8,2.3,8.6,3.8c1.6,0.9,3.1,1.9,4.5,3.1
		c2.8,2.3,4.1,5.3,4.4,8.8c0.2,2-0.5,3.7-1.7,5.2c-0.5,0.6-1,1.2-1.5,1.8c0.3,0.3,0.6,0.5,0.9,0.6c-0.1,0.4-0.4,0.3-0.6,0.3
		c-1.1-0.1-2.1,0.3-3,0.9c-2.3,1.5-4.8,2.7-7.4,3.6c-0.3,0.1-0.5,0.1-1.2,0.3c0.5-0.5,0.6-0.7,0.9-0.9c2.3-1.7,4.6-3.4,6.9-5
		c2.2-1.6,3.8-3.6,4.8-6.1c0.1-0.2,0.1-0.3,0.2-0.5c0.6-1.6,0.5-2.3-0.8-3.5c-1.7-1.6-3.7-2.9-5.8-3.8c-4.3-1.9-8.7-3.4-13.2-4.5
		c-4.1-1.1-8.4-1.8-12.6-2.4c-3.8-0.6-7.7-1.1-11.5-1.6c-2.9-0.3-5.8-0.6-8.7-0.8c-4.8-0.3-9.6-0.7-14.3-0.9
		c-5.1-0.2-10.3-0.4-15.4-0.5c-9.9-0.1-19.7,0-29.6,0.1c-5.8,0.1-11.5,0.3-17.3,0.5c-3.6,0.1-7.3,0.2-10.9,0.4
		c-4.8,0.3-9.6,0.6-14.3,0.9c-3.4,0.2-6.7,0.5-10.1,0.8c-4,0.4-7.9,0.8-11.9,1.2c-3.5,0.4-6.9,0.8-10.4,1.2
		c-5.3,0.6-10.5,1.3-15.8,1.9c-4.5,0.6-9,1.2-13.5,1.9c-4.7,0.7-9.5,1.4-14.2,2.1c-3.9,0.6-7.9,1.2-11.8,1.9
		c-3.7,0.6-7.3,1.2-11,1.9c-4.9,0.9-9.9,1.7-14.8,2.6c-3.9,0.7-7.8,1.6-11.7,2.3c-12.8,2.4-25.6,5.3-38.2,8.4
		c-17,4.2-33.8,9-50.3,14.7c-8,2.8-15.9,6-23.7,9.3c-2.4,1-2.1,0.9-4.3-0.2c-2-1-3.9-2.1-5.9-3.1c-1.5-0.7-1.7-2.5-1.2-3.5
		c0.2-0.4,0.6-0.9,0.9-1.2c3.6-3.3,7.1-6.6,10.8-9.7c18.4-15.9,37.8-30.7,58-44.3c2.4-1.6,4.7-3.2,7.1-4.7c2.7-1.8,5.6-3.3,8.6-4.5
		c2.1-0.8,4-1.8,6-2.9c6.8-3.8,13.5-7.7,20.3-11.4c11.8-6.4,23.9-12.3,36.1-17.9c9.7-4.4,19.3-8.7,29.2-12.6
		c18-7.2,36.3-13.2,55-18.2c5.5-1.5,10.9-3,16.1-5.1C296.7,16.7,297.9,16.2,298.8,15.3z"/>
	<path class="st0" d="M153.4,138.5c0.8,0.1,1.4,0.5,2,1c2,1.5,3.6,3.4,4.8,5.7c1.1,2,1.3,4.1,0.6,6.3c-0.7,2.2-1.4,4.3-2.1,6.5
		c-4.3,13-8.4,26-12.2,39.1c-2,6.9-4,13.9-5.4,21c-1.1,5.2-2,10.5-2.5,15.9c-0.2,1.8-0.1,3.5-0.1,5.3c0,0.3,0.1,0.5,0.2,0.9
		c0.3-0.1,0.6-0.1,0.8-0.2c1-0.6,2-1.1,2.9-1.8c2.4-1.8,4.4-3.9,6.4-6.2c4.2-4.8,8.2-9.8,11.9-15c5.9-7.9,11.7-15.9,17.5-23.8
		c10.8-14.7,22.3-28.9,34.3-42.6c6.8-7.8,13.5-15.6,20.2-23.5c3.3-3.8,6.6-7.6,9.9-11.4c0.1-0.2,0.3-0.3,0.5-0.5
		c0.8,0.1,1.4,0.6,1.9,1.1c1.3,1.1,2.4,2.5,3.3,3.9c0.9,1.4,1,2.7,0.4,4.2c-1.4,3.2-2.7,6.5-4,9.8c-6.4,15.1-12.7,30.1-19.2,45.2
		c-7.9,18.7-16,37.3-23.9,56c-3.1,7.4-6.1,14.9-8.9,22.4c-1.7,4.5-3.1,9.2-4.7,13.8c-0.1,0.5-0.5,0.9-0.2,1.5
		c0.3-0.1,0.5-0.2,0.7-0.3c11.1-6.5,22.6-12.1,34.5-17c9.2-3.8,18.4-7.5,27.8-10.5c7.9-2.5,15.9-4.7,23.9-7
		c9.5-2.7,19.1-4.9,28.8-6.8c8.8-1.7,17.6-3.5,26.4-4.6c5.2-0.7,10.4-1.4,15.6-2c5.5-0.7,11.1-1.3,16.6-1.9c3.7-0.4,7.4-0.8,11.1-1
		c3-0.2,6-0.1,9.1,0c3.4,0.1,6.8,0.4,10.2,0.9c2.7,0.4,5.4,0.9,8,1.7c2.2,0.7,4.4,1.7,6.2,3.2c2.1,1.6,3.6,3.7,4,6.3
		c0.5,2.6-0.2,5.1-1.4,7.4c-0.1,0.1-0.1,0.2-0.2,0.3c-2.3,2.4-4.6,4.8-7.8,6c-0.1,0-0.2,0-0.4-0.1c0.4-0.4,0.7-0.8,1-1.1
		c1.2-1.4,2.5-2.8,3.7-4.3c0.9-1.1,1.5-2.3,1.9-3.6c0.8-2.4,0.2-4.5-1.7-6.2c-0.9-0.9-2-1.5-3.1-2c-4-1.7-8-2.9-12.4-2.8
		c-3.8,0.1-7.5,0.3-11.3,0.6c-3,0.3-5.9,0.5-8.9,0.8c-3.9,0.4-7.8,0.8-11.7,1.3c-7.1,0.8-14.2,2-21.3,3.3c-14,2.4-27.8,5.4-41.6,8.9
		c-13.4,3.4-26.6,7.3-39.7,11.6c-8.2,2.7-16.3,5.8-24.3,9c-6.6,2.6-13.1,5.3-19.4,8.5c-3.5,1.7-6.9,3.5-10.3,5.3
		c-5.4,2.8-10.4,6.2-14.9,10.3c-0.2,0.2-0.4,0.4-0.6,0.6c-0.5,0.5-0.7,1-0.5,1.7c0.1,0.5,0.2,1,0.3,1.5c0.1,1-0.5,1.5-1.5,1.4
		c-0.3,0-0.7-0.1-1-0.2c-3.2-0.8-5.7-2.7-7.6-5.4c-0.4-0.5-0.6-1.2-0.8-1.9c-0.6-2.3-0.3-4.5,0.2-6.8c1.7-7.3,3.9-14.5,6.5-21.6
		c3.1-8.3,6.4-16.4,10-24.5c14.7-33.6,29.4-67.2,44.1-100.9c0.4-1,0.9-2,1.3-3c0.1-0.4,0.2-0.7,0.4-1.4c-0.5,0.4-0.8,0.5-1,0.7
		c-1.8,1.9-3.6,3.8-5.4,5.7c-7.1,7.5-14,15.1-20.7,23c-9,10.7-17.4,21.9-25.4,33.3c-7.9,11.2-15.7,22.4-23.6,33.5
		c-2.7,3.9-5.6,7.6-8.4,11.4c-2,2.7-4.1,5.2-6.7,7.3c-0.9,0.7-1.8,1.4-2.8,2c-1.6,1-3.3,1-5,0c-0.7-0.4-1.4-0.8-2-1.3
		c-2.6-1.6-3.8-4-4.1-7c-0.2-2.6-0.2-5.1,0.1-7.7c1.8-14,4.8-27.7,8.9-41.2c0.6-2,1.2-4,1.8-6.1c0.1-0.4,0.2-0.8,0.3-1.2
		c-0.6,0.2-0.8,0.6-1,1c-2.6,4.4-5.3,8.8-7.8,13.3c-8,14-15.7,28.2-23.2,42.5c-3.6,7-7.4,13.9-11.2,20.8c-0.5,1-1.2,2-1.8,2.9
		c-0.6,0.8-1.1,1-2.1,0.6c-1.2-0.6-2.4-1.2-3.6-1.9c-0.9-0.5-1.2-1.4-0.9-2.4c0.3-1.2,0.5-2.5,1-3.6c1.9-5.5,4.3-10.9,6.8-16.2
		c3.7-7.7,7.9-15.2,11.9-22.7c5.6-10.3,11.6-20.4,17.5-30.5c4.4-7.5,8.8-15,13.2-22.6c3.6-6.2,6.9-12.6,9.5-19.3
		C152.5,140,152.7,139.1,153.4,138.5z"/>
	<path class="st0" d="M345.7,200.3c1.1-0.4,2-0.7,2.9-1c4.4-1.5,8.7-3.1,13.1-4.5c5.9-1.9,11.9-3.2,18-4.1c3.7-0.5,7.4-0.7,11.1-0.2
		c0.9,0.1,1.8,0.3,2.6,1c-0.5,0.2-0.8,0.3-1.2,0.5c-4.8,1.4-9.6,2.8-14.4,4.2c-5.9,1.7-11.6,3.8-17.2,6.2
		c-5.1,2.1-10.1,4.2-15.1,6.3c-0.7,0.3-1.4,0.6-2,1c-1.1,0.6-2.2,0.5-3.1-0.4c-1.3-1.3-2.6-2.6-3.8-3.9c-0.2-0.2-0.4-0.5-0.5-0.7
		c-0.3-0.5-0.2-1,0.3-1.3c0.6-0.5,1.3-0.9,2-1.3c1.4-0.9,1.8-1.3,2.6-2.7c-0.2-0.6-0.7-1-1.1-1.4c-0.8-1-1.7-2-2.5-3
		c-1.2-1.6-1.8-3.4-1.3-5.5c0.1-0.2,0-0.4-0.1-0.8c-4.3,1.6-8.6,3.3-12.8,4.9c0,0.7,0.5,1,0.9,1.3c1.3,1.2,1.6,2.5,1.1,4.2
		c-0.5,1.5-1.1,2.9-2.1,4.1c-2.1,2.5-4.2,5-6.3,7.5c-0.3,0.4-0.8,0.7-1.2,1c-0.7,0.6-1.5,0.6-2.2,0.2c-1.6-0.9-3-2.1-4-3.6
		c-0.3-0.4-0.4-1-0.4-1.4c0-0.7,0.1-1.4,0.2-2c0-0.4,0.1-0.7,0.2-1.3c-0.8,0.3-1.1,0.9-1.5,1.3c-3.9,4.3-7.9,8.6-11.8,12.8
		c-1,1-2.1,2-3.1,2.9c-0.6,0.5-1.4,0.9-2.2,0.8c-2.7-0.5-5.5-2.1-5.1-5.9c0.3-2.4,0.9-4.8,1.7-7.1c0.3-1.1,0.7-2.2,1.1-3.2
		c0.2-0.5,0.3-1.1,0.4-1.7c-0.7,0.2-1,0.8-1.3,1.2c-1.9,2.2-3.7,4.5-5.8,6.5c-1.8,1.7-3.7,3.3-5.7,4.6c-1.2,0.8-2.5,1.5-4,2
		c-1.9,0.6-3.7,0.5-5.5-0.4c-3.1-1.6-5.3-4-6.2-7.4c-0.1-0.5-0.3-0.9-0.5-1.5c-0.4,0.2-0.7,0.4-1,0.6c-0.9,0.6-1.8,1.2-2.7,1.8
		c-0.8,0.5-1.4,1.1-1.9,1.9c-0.3,0.5-0.5,1-0.7,1.5c-1.6,4-3.1,8-4.6,11.9c-0.2,0.6-0.4,1.2-0.6,1.8c-0.3,1-0.7,2,0.1,2.8
		c-0.5,0.9-1.1,1-1.8,0.8c-2.2-0.4-4-2.2-4.2-4.4c-0.3-2.7-0.3-5.5,0.5-8.1c0.9-3,2-5.9,3.4-8.8c2.2-4.7,4.6-9.4,6.9-14.1
		c0.2-0.3,0.6-0.6,0.3-1.2c-0.4,0.5-0.8,1-1.2,1.5c-3.6,4.9-7.2,9.7-10.8,14.6c-1.6,2.1-3.3,4.1-4.9,6.1c-0.5,0.6-1.1,1.2-1.7,1.7
		c-0.9,0.7-2,0.8-3.1,0.4c-1.7-0.7-3.2-1.8-4.4-3.2c-0.8-1-1.2-2.2-1.2-3.5c0-1.8,0.4-3.6,0.8-5.4c0.7-2.9,1.9-5.6,3.3-8.2
		c0.1-0.3,0.3-0.5,0.4-0.7c0.5-0.6,0.9-0.7,1.6-0.4c1.6,0.9,3,2.1,4.3,3.4c0.5,0.5,0.6,1.1,0.4,1.8c-0.1,0.4-0.3,0.7-0.5,1.1
		c-1.3,2.9-2.5,5.7-3.8,8.6c-0.3,0.6-0.7,1.2-0.4,2.1c0.2-0.1,0.4-0.1,0.6-0.3c0.9-0.9,1.8-1.7,2.7-2.6c7.1-7.9,13.9-16.2,20.7-24.4
		c5.9-7.1,4.5-5.1,9.6-13.3c4-6.3,8.1-12.6,12.1-18.9c0.5-0.8,1-1.6,1.8-2.2c0.6,0,0.9,0.3,1.1,0.7c0.2,0.4,0.3,0.9,0.2,1.3
		c-0.1,0.8-0.4,1.5-0.7,2.3c-2.9,7.2-6.2,14.2-9.7,21.1c-3.9,7.7-7.8,15.4-11.6,23c-0.2,0.4-0.4,0.8-0.5,1.2
		c0.5,0.3,0.7-0.1,0.9-0.3c2.6-2,5.1-4,7.7-6c0.6-0.5,1.3-1,1.9-1.4c1.6-1,2.3-0.9,3.6,0.5c0.1,0.2,0.3,0.4,0.4,0.6
		c-0.3,0.3-0.5,0.6-0.8,0.9c-2.8,2.6-5.7,5.1-8.5,7.7c-0.5,0.4-0.9,0.8-1.4,1.3c1,2.9,2,5.6,3.1,8.5c0.5,0,1,0.1,1.4,0
		c1-0.3,1.9-0.7,2.8-1.1c3.3-1.8,6.1-4.1,8.8-6.7c5.1-5,9.6-10.5,14-16.1c2.7-3.5,5-7.2,7.1-11.1c3.2-5.9,6.5-11.6,9.8-17.4
		c0.2-0.4,0.5-0.9,1.1-1.1c0.2,0.1,0.4,0.1,0.5,0.2c1.3,0.8,1.4,1.3,0.8,2.7c-1.7,3.9-3.3,7.8-5.2,11.5
		c-5.8,11.7-10.6,23.8-14.7,36.2c-0.5,1.6-1.1,3.3-1.3,5c0,0.2,0,0.3,0,0.6c0.3-0.1,0.5-0.1,0.6-0.2c0.3-0.2,0.6-0.5,0.9-0.8
		c5-4.8,10.1-9.6,15.2-14.3c2.9-2.7,5.6-5.5,7.9-8.8c0.8-1.2,1.9-2.3,2.9-3.4c0.2-0.3,0.5-0.5,0.7-0.7c0.4-0.4,0.9-0.4,1.4-0.1
		c1.1,0.7,2.1,1.3,2.2,2.9c0.5-0.1,0.9-0.1,1.2-0.2c2.3-0.9,4.6-1.7,6.9-2.6c1.8-0.7,3.5-1.4,5.2-2.1c1.2-0.5,2.3-1.1,3.3-2
		c1.5-1.3,3.1-2.5,4.9-3.5c0.6-0.3,1.1-0.6,1.7-0.8c1.7-0.6,3.2,0.1,4,2c-0.6,0.6-1.3,1-2.1,1.3c-4,1.5-5.8,4.7-6.9,8.6
		c-0.6,2.1-0.1,3.9,1.7,5.4C343.3,198.3,344.5,199.3,345.7,200.3z M317.3,201.2c1.4-1.4,2.7-2.8,3.7-4.5c0.3-0.5,0.7-1,0.5-1.7
		c-1.2-0.4-1.3-0.4-1.7,0.4c-0.9,1.8-1.8,3.6-2.6,5.4C317.1,200.9,317.2,201,317.3,201.2z"/>
	<path class="st0" d="M295,72.3c0.4-0.4,0.8-0.8,1.2-1.2c2.1-2.2,4.2-4.5,6.4-6.7c1.4-1.4,2.8-2.7,4.4-3.8c0.6,0.2,1.1,0.7,1.5,1.1
		c0.8,0.9,1.1,2,0.8,3.2c-0.3,0.9-0.6,1.8-0.9,2.7c-0.6,1.5-1.2,3-1.8,4.4c-0.1,0.3-0.2,0.6-0.3,1.1c0.7-0.3,1.1-0.7,1.5-1.1
		c1.5-1.7,3.1-3.4,4.6-5c0.9-1,1.9-1.9,2.9-2.9c0.2-0.2,0.5-0.4,0.8-0.6c1.8,1.1,2.6,2.7,2.5,4.8c-0.1,0.8-0.1,1.6-0.1,2.4
		c0,0.7,0,1.5,0,2.2c0.7,0.5,1.4,0.5,2.2,0.4c1.8-0.3,3.4-0.8,5-1.7c1.5-0.9,2.9-1.8,4.3-2.7c2.1-1.4,4-3,6.1-4.5
		c1.2-0.9,2.2-2,3.1-3.2c0.6-0.8,1.1-1.6,1.6-2.4c4-7,8.5-13.6,13.3-20.1c3.1-4.3,6.3-8.5,9.5-12.8c0.3-0.5,0.7-0.9,1-1.3
		c1.6,0.7,2,1.4,1.6,2.9c-0.3,1-0.7,1.9-1.1,2.9c-1.1,2.2-2.2,4.4-3.4,6.5c-2.2,3.6-4.4,7.2-6.8,10.7c-3.1,4.6-6,9.3-8.6,14.2
		c-1.1,2-2.2,4-3.3,6c-0.2,0.3-0.3,0.7-0.6,1.3c0.4-0.2,0.6-0.2,0.8-0.4c0.5-0.4,1.1-0.9,1.6-1.3c2.4-1.9,5-3.4,8-4
		c0.2,0,0.3-0.1,0.5-0.1c2.5-0.5,3.8,0.1,5.1,2.3c0.6,1,0.6,1.9,0,2.9c-0.3,0.5-0.7,0.9-1,1.3c-2.4,2.6-5.3,4.7-8.3,6.6
		c-0.6,0.4-1.2,0.6-1.9,0.7c-0.9,0.2-1.3-0.1-1.5-1.1c0-0.2-0.1-0.4-0.1-0.6c-0.2,0.1-0.4,0.1-0.4,0.1c-0.7,0.7-1.4,1.4-2,2.1
		c-1.6,1.9-3.3,3.8-4.9,5.7c-0.6,0.7-1.2,1.4-1.9,2c-0.7,0.7-1.3,0.7-2,0.1c-1.3-1.1-2.3-2.4-2.9-4c-0.5-1.2-0.4-2.5,0-3.7
		c0.4-1.4,0.9-2.7,1.4-4c0.1-0.3,0.1-0.6,0.2-1.1c-0.7,0.4-1.2,0.7-1.6,1c-1,0.6-1.9,1.2-2.9,1.8c-1.4,0.8-2.9,1.4-4.4,1.8
		c-2.4,0.6-4.4,0-6-2c-1-1.1-1.8-2.4-2.3-3.8c-0.1-0.4-0.3-0.7-0.4-1.1c-0.6-0.1-0.8,0.4-1.1,0.7c-2.9,3.2-5.7,6.5-8.6,9.7
		c-0.6,0.6-1.2,1.2-1.9,1.7c-0.8,0.5-1.3,0.5-2-0.2c-0.6-0.7-1.2-1.4-1.7-2.1c-0.9-1.3-1-2.8-0.4-4.3c0.5-1.2,0.9-2.4,1.3-3.6
		c-0.5-0.3-0.7,0.1-0.9,0.3c-1.2,1.3-2.3,2.7-3.5,4c-1.6,1.9-3.2,3.7-4.8,5.6c-1.3,1.5-2.6,3-4.2,4.4c-1.5-0.6-2.2-1.8-2.5-3.2
		c-0.1-0.5,0.2-1.1,0.4-1.6c0.8-1.9,1.7-3.7,2.6-5.6c0.3-0.6,0.5-1.1,0.8-1.7c0.1-0.2,0.1-0.4,0.1-0.8c-0.4,0.3-0.7,0.4-1,0.6
		c-1.5,1.1-3,2.3-4.5,3.4c-0.6,0.4-1.2,0.8-1.9,1.1c-1.4,0.6-2.6,0.4-3.8-0.7c-1.2-1.1-2.1-2.4-2.7-3.9c-0.2-0.5-0.4-0.9-0.6-1.4
		c-0.7,0.2-1.2,0.8-1.7,1.2c-1.5,1.3-2.9,2.7-4.5,4c-1.3,1.1-2.7,2.1-4.1,3.1c-1.6,1.1-2.4,1-3.7-0.5c-0.5-0.6-0.9-1.2-1.3-1.8
		c-0.5-0.7-0.7-1.5-0.7-2.4c0-0.4,0-0.8-0.1-1.3c-0.3,0.1-0.5,0.2-0.7,0.3c-0.7,0.5-1.4,1-2.1,1.5c-3.8,3.2-7.6,6.3-11.5,9.5
		c-1.6,1.3-3.2,2.8-4.6,4.4c-1.3,1.5-2.8,2.8-4.4,4c-1.2,0.9-1.7,0.9-2.9-0.1c-1.4-1.1-2.5-2.4-3.4-4c-1-1.7-0.9-2.1,0.5-3.4
		c1.1-1,2.2-1.9,3.3-3c1.5-1.4,2.9-2.9,4.2-4.5c1.3-1.5,2.3-3.1,3.1-4.9c0.3-0.6,0.5-1.3,0.6-1.9c0.4-1.7,0-3.3-1-4.7
		c-0.4-0.6-0.9-1.1-1.4-1.7c-1.8-2-3.3-4.1-4.6-6.4c-0.2-0.4-0.4-0.8-0.6-1.2c-0.5-1-0.4-2,0.3-2.9c4-4.8,9.4-5.2,13.5-1.6
		c0.8,0.7,1.4,1.5,2,2.3c0.6,0.7,0.8,1.5,0.3,2.4c-0.2,0.3-0.3,0.6-0.5,1.1c-0.2-0.3-0.4-0.5-0.5-0.7c-0.1-0.4-0.2-0.8-0.3-1.2
		c-0.3-1.3-0.5-1.5-1.9-1.4c-1,0-2,0.3-2.9,0.8c-1.6,0.9-2.9,2-3.9,3.5c-0.9,1.3-0.9,1.6,0,2.9c0.9,1.2,1.8,2.3,2.7,3.5
		c1.8,2.3,3.6,4.7,4.7,7.5c0.1,0.2,0.3,0.5,0.5,0.8c7.5-5.9,15.9-10.2,24.3-14.3c0.7,0.2,1.2,0.7,1.6,1.3c0.4,0.5,0.7,1,1.1,1.5
		c0.9-0.3,1.5-1,2.2-1.5c1.4-1,1.7-1,2.8,0.3c0.2,0.3,0.4,0.5,0.7,0.8c1.1,1.4,1.3,2.9,0.7,4.7c-0.5,1.3-0.8,2.7-1.2,4.1
		c-0.1,0.2,0,0.4-0.1,0.8c0.5-0.2,0.9-0.3,1.2-0.4c2-0.9,3.8-2.1,5.5-3.5c1.9-1.5,3.8-3.1,5.6-4.7c1.8-1.5,3.3-3.3,4.5-5.4
		c1,0.3,1.4,1.1,1.9,1.9c0.4,0.6,0.2,1.2,0,1.8c-1,2.4-2,4.9-2.9,7.3c-0.2,0.5-0.3,1.1-0.5,1.6C294.8,72.2,294.9,72.2,295,72.3z"/>
	<path class="st0" d="M381.9,71.3c-1.8,0.8-3.7,1.7-5.6,2.5c-2.2,1-4.3,2.1-6.5,3c-2.4,1.1-3,0.9-4.7-1.1c-0.9-1.1-1.7-2.4-2.5-3.6
		c-0.7-1.1-0.6-2.2,0.2-3.2c0.3-0.5,0.7-0.9,1.1-1.3c2.7-2.8,6-4.8,9.8-6.1c1.2-0.4,2.3-0.2,3.1,0.8c0.7,0.8,1.4,1.7,2.1,2.5
		c1.9,0.3,2.1,0.4,3.3,1.9c0.7,0.8,1.3,1.7,1.9,2.7c0.6,1,1.3,1.5,2.4,1.8c4,1,8,1.8,12.1,2.3c4.8,0.6,9.6,1.1,14.4,1.8
		c3.6,0.5,7.1,1.4,10.6,2.4c0.2,0.1,0.4,0.2,0.6,0.4c-0.9,0.6-1.9,0.7-2.8,0.9c-2.3,0.4-4.5,0.4-6.8,0.4c-7.1,0-14.1-0.3-21.1-1.2
		c-4.1-0.5-7.6-2.3-10.2-5.6c-0.2-0.3-0.4-0.5-0.7-0.8C382.4,71.5,382.2,71.5,381.9,71.3z"/>
	<path class="st0" d="M295.5,40.5c-0.1,0.4-0.2,0.7-0.3,0.9c-0.4,0.7-0.8,1.4-1.3,2c-3.1,3.1-6.2,6-9.8,8.5
		c-1.8,1.2-2.2,1.2-3.6-0.3c-1.3-1.4-2.3-3-2.9-4.8c-0.4-1.1-0.2-1.6,1-1.9c4-1.1,7.8-3,11.5-4.7c0.9-0.4,1.8-0.8,2.7-1.2
		c0.8-0.4,1.6-0.1,2.2,0.5C295.2,39.7,295.3,40.2,295.5,40.5z"/>
	<path class="st0" d="M331.3,168.2c0.6,2.7-0.1,5.7-1.7,7.7c-0.6,0.8-1.3,1.4-2,2.1c-1.5,1.3-3.2,2.4-4.9,3.4
		c-1.4,0.8-2.4,0.7-3.6-0.4c-1-0.9-1.9-1.9-2.9-2.9c-0.5-0.5-0.8-1.1-0.9-1.8c1.9-0.6,3.8-1.1,5.7-1.8c1.9-0.7,3.6-1.6,5.3-2.8
		C327.9,170.6,329.5,169.4,331.3,168.2z"/>
	<path class="st0" d="M236.8,190.8c-0.4-0.1-0.9-0.2-1.4-0.4c-0.9-0.4-1.9-0.8-2.8-1.3c-1-0.5-1.2-1.2-0.7-2.3
		c0.5-1.2,1.3-2.3,2.2-3.3c0.9-0.9,1.8-1.7,2.8-2.5c0.7-0.5,1.5-0.7,2.3-0.4c1.1,0.4,2.1,0.8,3.1,1.4c0.9,0.5,1.1,1.1,0.6,2
		c-1.1,2.1-2.3,4.2-4,5.9C238.4,190.5,237.8,190.9,236.8,190.8z"/>
</g>
</svg>
