<?xml version="1.0" encoding="utf-8"?>
<!-- Generator: Adobe Illustrator 28.0.0, SVG Export Plug-In . SVG Version: 6.00 Build 0)  -->
<svg version="1.1" id="_x2014_ÎÓÈ_x5F_1" xmlns="http://www.w3.org/2000/svg" xmlns:xlink="http://www.w3.org/1999/xlink"
	 x="0px" y="0px" viewBox="0 0 1920 1580.6" style="enable-background:new 0 0 1920 1580.6;" xml:space="preserve">
<style type="text/css">
	.st0{fill:#9E3E91;}
	.st1{fill:#301701;}
	.st2{fill:#261101;}
</style>
<path class="st0" d="M1882.7,724.1c-8.4-3.6-23.9-25.6-43.1-20.6c-19.1,2.2-42,7.2-65,11.5c-23.1-1.5-46.4-25.9-66.6-21.2
	c-20.2,10.6-37.3,10.7-47.8,21.2c-14.1,12.9-31.2-8.6-48.5-3.5s-34.7,6.8-49.2,6c-14.5,11-26.1-5.5-31.7-8.5
	c-5.6-5.7-19.2-1.7-36.2-5.1c-17-2.9-37.5,1.2-57.2,8c-19.6-5.1-38.4,15.2-51.9,14.8c-10.1,7-17.6-21.1-23.5-7.9
	c-5.9-5.2-10.4-2.5-14.6,4.9c-4.2-3.7-8.1,14.3-12.9,7.1c-4.8-4.6-10.6,0.2-18.4,9.8c-6.3,6.3-18.4,10.9-34.1,11.7
	c-15.6,1-34.7-13.3-54.9,4c-10.1,1.4-20.5,1.6-30.8,3c-10.3,2.8-20.7-2.5-30.7,10.8c-10-3.3-19.7-6.7-28.8-12
	c-9.1,12.2-17.5-2.7-25.1,3.1c-10.7,10-19.5,16.1-25.7,13.6c-6.3-2.5-13.1-3.5-19.5-1.5c-7,2.2-15.5,2.4-24.9-4.4
	c-4.8-3.5-10.4-5.8-16.3-6.4c-7.1-0.7-14.6-3.2-22-5.8c-10.7-3.7-21.5,12.2-31.9,12.5c-10.4-11.6-20.2-9.6-29-6.6
	c-8.8,5-16.5-11.6-22.5-0.9c-12-4.9-24-17.7-36.1-11.3c-12.1-15.5-26.6,1.5-39-9c-12.4-2.2-22.5-17.2-35.3-16.3
	c-12.7-2.7-31,10.2-50.2,11.3c-9.6,2.1-19.5,14.1-29.1,15.9c-9.6,8.5-18.8-4.7-27.2,4c-8.4,7.4-15.9,3.7-21.9,0.7
	c-6.1,8.6-10.7-6.9-13.3-4.1c-3.9-9.7-17.2,11.3-34.8,2.5c-17.6-1.5-39.6-18.9-61.1-24.9c-21.5-19.7-42.5-11-58.2-22.3
	c-15.6-16.2-25.9-17.2-25.9-9.7c0,3.6-10.8,1.3-27.6,3.3c-12.6-7.7-28.6,4-45.8,5.1c-17.3,10.5-35.9,1.7-53.7,5.2
	c-17.9,2-35,7.4-49.3,3.4c-14.4,5.1-25.9-17-32.7-0.2c-7.2-9.7-22.6-4.1-42.7-11.1c-20.1-20.2-44.9-19-70.7-21.3
	c-25.8-7.8-52.7,44.3-77.1,37.7C39.4,707.5,0.7,700,0.7,710.3c0,25.9,0,476.2,0,476.2h1919.7V732.4c0,0-14.9-13.7-14.9-11.8
	C1905.5,721,1882.7,712.3,1882.7,724.1z"/>
<path class="st1" d="M1920.4,444.7c-0.3,0.5-0.7,0.7-0.7,0.7s-0.5,0.7-0.6,0.7s-0.1,0-0.3,0.2c-0.2,0.2-0.8-0.3-1,0
	s-0.8-0.1-0.6,0.3c0.2,0.4-0.7,0-0.7,0c0-0.2,0.1-0.6,0-0.7s0.3-0.4,0.3-0.3s0,0.5,0,0.5s0.4,0.3,0.5-0.2c0-0.5,0.2-0.8,0.4-0.8
	c0.2,0.1,0.6-0.3,0.6,0s0.3,0.7,0.3,0.7l0.4-0.1c0,0-0.1-0.1,0.1-0.4c0.3-0.6,0.3-0.5,0.3-0.8s0.6-0.6,0.6-0.3
	C1920,444.3,1920.6,444.2,1920.4,444.7z"/>
<path class="st1" d="M1920.4,525.3c0-0.2-0.1,0.1,0,0.4C1920.4,525.5,1920.4,525.4,1920.4,525.3z"/>
<path class="st2" d="M764,1130.8c0.3-0.2,0.1-0.9,0-1.6c0,0.2-0.1,0.5-0.1,0.7C763.9,1130,763.9,1130.4,764,1130.8L764,1130.8z"/>
<path class="st2" d="M776,1128.5c0-0.1-0.1-0.1-0.1-0.2C775.9,1128.4,775.9,1128.5,776,1128.5z"/>
<path class="st2" d="M1189.6,1014.6c0.3-0.2,0.1-0.9,0-1.6c0,0.2-0.1,0.5-0.1,0.7C1189.5,1013.8,1189.5,1014.2,1189.6,1014.6
	C1189.5,1014.6,1189.6,1014.6,1189.6,1014.6z"/>
<path class="st2" d="M1201.6,1012.3c0-0.1-0.1-0.1-0.1-0.2C1201.5,1012.2,1201.5,1012.3,1201.6,1012.3z"/>
</svg>
