<?xml version="1.0" encoding="utf-8"?>
<!-- Generator: Adobe Illustrator 24.1.1, SVG Export Plug-In . SVG Version: 6.00 Build 0)  -->
<svg version="1.1" xmlns="http://www.w3.org/2000/svg" xmlns:xlink="http://www.w3.org/1999/xlink" x="0px" y="0px"
	 viewBox="0 0 500 500" style="enable-background:new 0 0 500 500;" xml:space="preserve">
<style type="text/css">
	.st0{display:none;}
	.st1{fill:#FFFFFF;}
	.st2{display:inline;fill:none;stroke:#ED1F24;stroke-width:2;stroke-miterlimit:10;}
</style>
<g id="Layer_1">
</g>
<g id="Layer_4" class="st0">
</g>
<g id="Layer_2">
	<path class="st1" d="M345.7,274.4l-0.6-1l13.4-19.1l-44.7-57.9h-46.1l77.4-108.3l-191.4,0l38.7,54.3l35.1-0.3l-87.2,112.1l0.8,1.1
		l12.6,18L72.3,408.9h125.2l16.7-23.6l24.4,35.2l21.7,0l24.6-35.2l16.4,23.6h125.6L345.7,274.4z M249.4,286.2l-22-31.8h44.5
		L249.4,286.2z"/>
</g>
<g id="Layer_3" class="st0">
	<polygon id="triangle-1" class="st2" points="72.7,408.9 249.6,115.6 427.3,408.9 	"/>
	<polygon id="triangle-2" class="st2" points="250,113.3 21.2,408.9 478.8,408.9 	"/>
	<polygon id="triangle-3" class="st2" points="140.7,254.3 249.8,407 359,254.3 	"/>
	<polygon id="triangle-4" class="st2" points="214.6,385.3 249.3,435.9 285.2,385.3 	"/>
	<polygon id="triangle-5" class="st2" points="154.2,88.2 249.8,222.1 345.5,88.2 	"/>
</g>
</svg>
