<?xml version="1.0" encoding="utf-8"?>
<!-- Generator: Adobe Illustrator 28.0.0, SVG Export Plug-In . SVG Version: 6.00 Build 0)  -->
<svg version="1.1" id="_x2014_ÎÓÈ_x5F_1" xmlns="http://www.w3.org/2000/svg" xmlns:xlink="http://www.w3.org/1999/xlink"
	 x="0px" y="0px" viewBox="0 0 1920 4998.8" style="enable-background:new 0 0 1920 4998.8;" xml:space="preserve">
<style type="text/css">
	.st0{fill:#630658;}
	.st1{fill:#301701;}
	.st2{fill:#261101;}
</style>
<path class="st0" d="M0.7,4851.5V0h1919.7v4944.4c0,0-8.3-0.4-18,9.6c-9.7,10-20.9,24.2-26.6,21.8c-2.2,8.1-10.2-14.5-19,0.8
	c-8.8,11.1-18.4,4.9-23.9-6.6c-8.5-12-19.1-18.4-32.2-27c-6.5-9.1-13.7,13.1-21.5,6.6c-7.8-6.5-16.2-1.5-25.4-4.9
	c-5.6-5-12.3,6.3-19.7-5.6c-7.4-13.5-15.5-9.1-24-17.2c-8.5-3.3-17.5,7.2-26.5-1.2c-9.1-0.6-18.3-14.5-27.3-17.4
	c-18.1-14.8-35.6-38.1-50-33.7c-14.5-3-25.9-17.4-32-18.3c-4.1-1.6-10.5-4.7-18.6-7.3c-8-2.6-17.6-4.6-27.9-3.8
	c-10.3,5.5-21.3,6.9-32.2-6.1c-10.9,6.7-21.7-8.1-31.4-5.8c-9.8,12.8-18.6,0-25.6-4.9c-7-4.8-12.2-6.7-14.7-3.6
	c-3.7,9.4-16.1,3-33.2-6c-17.1-4.3-38.8-18.8-61.3-9.2c-11.2-11.8-22.7-13.5-33.8-12.8c-11.1,0.7-22,3.8-32,1.6
	c-10-2.1-19.3-1.1-27.2-6.1c-7.9,2.5-14.6-5.3-19-6.8c-7-4.9-13.8-7.2-20-10c-7.9,0.2-15.1,0-21.2-4.9c-8.5,1.5-16,0.9-22.6-4.2
	c-8.1,3.6-15.4,2.8-22.7-3c-7.1,2.4-14.1,0.4-21-2.7c-1.4-0.1-2.7-0.2-4.1-0.4c-6.1-0.8-12,0.6-17.9,2.2c-3.9,1.1-8.5-9.1-13.5-6.3
	c-6.4-5.5-13.6-14.6-21.3,0.8c-8.3,1.9-18.7-11.4-30.3,0c-11.5,5.5-24.2,7.4-36.7,4.3c-12.6-2.7-25,3.3-36.3,4.3
	c-7.5-4.7-13.2,4-16.1-7.1c-4.8-9.3-16.6-5.9-31.3-13.6c-14.7-3.7-32.3-4-48.6-2.6c-7.8,6.9-15.8-1.9-23.5,5.5
	c-7.7,7.8-15.2,0.9-22-3.2c-13.5-5.5-24.2,9.3-28.3,11.6c-2.8-2.4-8.4-0.9-16.1,8.1c-4.5,5.3-10.6,9-17.3,11
	c-9.4,2.9-20.1,11-31.5,22.3c-15.7,22.3-32.6,16.2-49.1,23.8c-16.5-1.2-32.5,16.6-46.4,20c-6.3,2.5-12.6,6.3-18.9,11.2
	c-6.3,4.8-12.7-9.4-19.2-3c-12.9,15.6-26-3.6-39.3,13.1c-13.4,20.7-27-7.5-41,10.8c-14,5.9-28.4,3.8-43.2,1.3
	c-1.8,6.7-3.6,10.6-5.3,9c-9-10.8-17.7,10.3-26.1,5.9c-8.3,5.9-16.3,17-24,9.3c-13.4-0.5-25.9,0.6-37.5,1.8s-22.4,2.5-32.4,2.9
	c0,7.5,0-3.5,0,0c-6.1-6.1-11.8-14.6-17.3-2.8c-5.5,0.9-10.7-7.6-15.7-7.7c-12,3.9-26,12.5-41.2,3.3c-15.3-6.1-31.8,1.3-48.7-8.1
	c-16.9,5.2-34.3-2.7-51.3-14.2c-17,4-33-6.8-47.1-18.6c-14.1-11.3-26.3,0.8-35.8-2.4c-9.4-3.3-16.1-5.7-19.1-7.6
	C47.1,4835.3,0.7,4851.5,0.7,4851.5z"/>
<path class="st0" d="M1157.1,4470.7c-0.3,0.2-0.1,0.9,0,1.6c0-0.2,0.1-0.5,0.1-0.7C1157.2,4471.5,1157.2,4471.1,1157.1,4470.7
	L1157.1,4470.7z"/>
<path class="st0" d="M1145.1,4473c0,0.1,0.1,0.1,0.1,0.2C1145.2,4473.1,1145.2,4473,1145.1,4473z"/>
<path class="st2" d="M731.5,4586.9c-0.3,0.2-0.1,0.9,0,1.6c0-0.2,0.1-0.5,0.1-0.7C731.6,4587.7,731.6,4587.3,731.5,4586.9
	C731.6,4586.9,731.5,4586.9,731.5,4586.9z"/>
<path class="st2" d="M719.5,4589.2c0,0.1,0.1,0.1,0.1,0.2C719.6,4589.3,719.6,4589.2,719.5,4589.2z"/>
</svg>
